<svg width="550" height="300" viewBox="0 0 550 300" fill="none" xmlns="http://www.w3.org/2000/svg">
<rect width="550" height="300" fill="#7A7A7A"/>
<path d="M62.6364 174V127.455H78.3636C82.0152 127.455 85 128.114 87.3182 129.432C89.6515 130.735 91.3788 132.5 92.5 134.727C93.6212 136.955 94.1818 139.439 94.1818 142.182C94.1818 144.924 93.6212 147.417 92.5 149.659C91.3939 151.902 89.6818 153.689 87.3636 155.023C85.0455 156.341 82.0758 157 78.4545 157H67.1818V152H78.2727C80.7727 152 82.7803 151.568 84.2955 150.705C85.8106 149.841 86.9091 148.674 87.5909 147.205C88.2879 145.72 88.6364 144.045 88.6364 142.182C88.6364 140.318 88.2879 138.652 87.5909 137.182C86.9091 135.712 85.803 134.561 84.2727 133.727C82.7424 132.879 80.7121 132.455 78.1818 132.455H68.2727V174H62.6364ZM102.534 174V139.091H107.716V144.364H108.08C108.716 142.636 109.867 141.235 111.534 140.159C113.201 139.083 115.08 138.545 117.17 138.545C117.564 138.545 118.057 138.553 118.648 138.568C119.239 138.583 119.686 138.606 119.989 138.636V144.091C119.807 144.045 119.39 143.977 118.739 143.886C118.102 143.78 117.428 143.727 116.716 143.727C115.019 143.727 113.504 144.083 112.17 144.795C110.852 145.492 109.807 146.462 109.034 147.705C108.277 148.932 107.898 150.333 107.898 151.909V174H102.534ZM139.466 174.727C136.314 174.727 133.549 173.977 131.17 172.477C128.807 170.977 126.958 168.879 125.625 166.182C124.307 163.485 123.648 160.333 123.648 156.727C123.648 153.091 124.307 149.917 125.625 147.205C126.958 144.492 128.807 142.386 131.17 140.886C133.549 139.386 136.314 138.636 139.466 138.636C142.617 138.636 145.375 139.386 147.739 140.886C150.117 142.386 151.966 144.492 153.284 147.205C154.617 149.917 155.284 153.091 155.284 156.727C155.284 160.333 154.617 163.485 153.284 166.182C151.966 168.879 150.117 170.977 147.739 172.477C145.375 173.977 142.617 174.727 139.466 174.727ZM139.466 169.909C141.86 169.909 143.83 169.295 145.375 168.068C146.92 166.841 148.064 165.227 148.807 163.227C149.549 161.227 149.92 159.061 149.92 156.727C149.92 154.394 149.549 152.22 148.807 150.205C148.064 148.189 146.92 146.561 145.375 145.318C143.83 144.076 141.86 143.455 139.466 143.455C137.072 143.455 135.102 144.076 133.557 145.318C132.011 146.561 130.867 148.189 130.125 150.205C129.383 152.22 129.011 154.394 129.011 156.727C129.011 159.061 129.383 161.227 130.125 163.227C130.867 165.227 132.011 166.841 133.557 168.068C135.102 169.295 137.072 169.909 139.466 169.909ZM163.472 139.091H168.835V176.545C168.835 178.697 168.464 180.561 167.722 182.136C166.994 183.712 165.888 184.932 164.403 185.795C162.934 186.659 161.078 187.091 158.835 187.091C158.653 187.091 158.472 187.091 158.29 187.091C158.108 187.091 157.926 187.091 157.744 187.091V182.091C157.926 182.091 158.093 182.091 158.244 182.091C158.396 182.091 158.562 182.091 158.744 182.091C160.381 182.091 161.578 181.606 162.335 180.636C163.093 179.682 163.472 178.318 163.472 176.545V139.091ZM166.108 133.273C165.063 133.273 164.161 132.917 163.403 132.205C162.661 131.492 162.29 130.636 162.29 129.636C162.29 128.636 162.661 127.78 163.403 127.068C164.161 126.356 165.063 126 166.108 126C167.153 126 168.047 126.356 168.79 127.068C169.547 127.78 169.926 128.636 169.926 129.636C169.926 130.636 169.547 131.492 168.79 132.205C168.047 132.917 167.153 133.273 166.108 133.273ZM193.295 174.727C189.932 174.727 187.03 173.985 184.591 172.5C182.167 171 180.295 168.909 178.977 166.227C177.674 163.53 177.023 160.394 177.023 156.818C177.023 153.242 177.674 150.091 178.977 147.364C180.295 144.621 182.129 142.485 184.477 140.955C186.841 139.409 189.598 138.636 192.75 138.636C194.568 138.636 196.364 138.939 198.136 139.545C199.909 140.152 201.523 141.136 202.977 142.5C204.432 143.848 205.591 145.636 206.455 147.864C207.318 150.091 207.75 152.833 207.75 156.091V158.364H180.841V153.727H202.295C202.295 151.758 201.902 150 201.114 148.455C200.341 146.909 199.235 145.689 197.795 144.795C196.371 143.902 194.689 143.455 192.75 143.455C190.614 143.455 188.765 143.985 187.205 145.045C185.659 146.091 184.47 147.455 183.636 149.136C182.803 150.818 182.386 152.621 182.386 154.545V157.636C182.386 160.273 182.841 162.508 183.75 164.341C184.674 166.159 185.955 167.545 187.591 168.5C189.227 169.439 191.129 169.909 193.295 169.909C194.705 169.909 195.977 169.712 197.114 169.318C198.265 168.909 199.258 168.303 200.091 167.5C200.924 166.682 201.568 165.667 202.023 164.455L207.205 165.909C206.659 167.667 205.742 169.212 204.455 170.545C203.167 171.864 201.576 172.894 199.682 173.636C197.788 174.364 195.659 174.727 193.295 174.727ZM230.091 174.727C226.818 174.727 224 173.955 221.636 172.409C219.273 170.864 217.455 168.735 216.182 166.023C214.909 163.311 214.273 160.212 214.273 156.727C214.273 153.182 214.924 150.053 216.227 147.341C217.545 144.614 219.379 142.485 221.727 140.955C224.091 139.409 226.848 138.636 230 138.636C232.455 138.636 234.667 139.091 236.636 140C238.606 140.909 240.22 142.182 241.477 143.818C242.735 145.455 243.515 147.364 243.818 149.545H238.455C238.045 147.955 237.136 146.545 235.727 145.318C234.333 144.076 232.455 143.455 230.091 143.455C228 143.455 226.167 144 224.591 145.091C223.03 146.167 221.811 147.689 220.932 149.659C220.068 151.614 219.636 153.909 219.636 156.545C219.636 159.242 220.061 161.591 220.909 163.591C221.773 165.591 222.985 167.144 224.545 168.25C226.121 169.356 227.97 169.909 230.091 169.909C231.485 169.909 232.75 169.667 233.886 169.182C235.023 168.697 235.985 168 236.773 167.091C237.561 166.182 238.121 165.091 238.455 163.818H243.818C243.515 165.879 242.765 167.735 241.568 169.386C240.386 171.023 238.818 172.326 236.864 173.295C234.924 174.25 232.667 174.727 230.091 174.727ZM266.841 139.091V143.636H248.75V139.091H266.841ZM254.023 130.727H259.386V164C259.386 165.515 259.606 166.652 260.045 167.409C260.5 168.152 261.076 168.652 261.773 168.909C262.485 169.152 263.235 169.273 264.023 169.273C264.614 169.273 265.098 169.242 265.477 169.182C265.856 169.106 266.159 169.045 266.386 169L267.477 173.818C267.114 173.955 266.606 174.091 265.955 174.227C265.303 174.379 264.477 174.455 263.477 174.455C261.962 174.455 260.477 174.129 259.023 173.477C257.583 172.826 256.386 171.833 255.432 170.5C254.492 169.167 254.023 167.485 254.023 165.455V130.727ZM308 174H293.636V127.455H308.636C313.152 127.455 317.015 128.386 320.227 130.25C323.439 132.098 325.902 134.758 327.614 138.227C329.326 141.682 330.182 145.818 330.182 150.636C330.182 155.485 329.318 159.659 327.591 163.159C325.864 166.644 323.348 169.326 320.045 171.205C316.742 173.068 312.727 174 308 174ZM299.273 169H307.636C311.485 169 314.674 168.258 317.205 166.773C319.735 165.288 321.621 163.174 322.864 160.432C324.106 157.689 324.727 154.424 324.727 150.636C324.727 146.879 324.114 143.644 322.886 140.932C321.659 138.205 319.826 136.114 317.386 134.659C314.947 133.189 311.909 132.455 308.273 132.455H299.273V169ZM353.545 174.727C350.182 174.727 347.28 173.985 344.841 172.5C342.417 171 340.545 168.909 339.227 166.227C337.924 163.53 337.273 160.394 337.273 156.818C337.273 153.242 337.924 150.091 339.227 147.364C340.545 144.621 342.379 142.485 344.727 140.955C347.091 139.409 349.848 138.636 353 138.636C354.818 138.636 356.614 138.939 358.386 139.545C360.159 140.152 361.773 141.136 363.227 142.5C364.682 143.848 365.841 145.636 366.705 147.864C367.568 150.091 368 152.833 368 156.091V158.364H341.091V153.727H362.545C362.545 151.758 362.152 150 361.364 148.455C360.591 146.909 359.485 145.689 358.045 144.795C356.621 143.902 354.939 143.455 353 143.455C350.864 143.455 349.015 143.985 347.455 145.045C345.909 146.091 344.72 147.455 343.886 149.136C343.053 150.818 342.636 152.621 342.636 154.545V157.636C342.636 160.273 343.091 162.508 344 164.341C344.924 166.159 346.205 167.545 347.841 168.5C349.477 169.439 351.379 169.909 353.545 169.909C354.955 169.909 356.227 169.712 357.364 169.318C358.515 168.909 359.508 168.303 360.341 167.5C361.174 166.682 361.818 165.667 362.273 164.455L367.455 165.909C366.909 167.667 365.992 169.212 364.705 170.545C363.417 171.864 361.826 172.894 359.932 173.636C358.038 174.364 355.909 174.727 353.545 174.727ZM376.159 174V139.091H381.341V144.545H381.795C382.523 142.682 383.697 141.235 385.318 140.205C386.939 139.159 388.886 138.636 391.159 138.636C393.462 138.636 395.379 139.159 396.909 140.205C398.455 141.235 399.659 142.682 400.523 144.545H400.886C401.78 142.742 403.121 141.311 404.909 140.25C406.697 139.174 408.841 138.636 411.341 138.636C414.462 138.636 417.015 139.614 419 141.568C420.985 143.508 421.977 146.53 421.977 150.636V174H416.614V150.636C416.614 148.061 415.909 146.22 414.5 145.114C413.091 144.008 411.432 143.455 409.523 143.455C407.068 143.455 405.167 144.197 403.818 145.682C402.47 147.152 401.795 149.015 401.795 151.273V174H396.341V150.091C396.341 148.106 395.697 146.508 394.409 145.295C393.121 144.068 391.462 143.455 389.432 143.455C388.038 143.455 386.735 143.826 385.523 144.568C384.326 145.311 383.356 146.341 382.614 147.659C381.886 148.962 381.523 150.47 381.523 152.182V174H376.159ZM445.966 174.727C442.814 174.727 440.049 173.977 437.67 172.477C435.307 170.977 433.458 168.879 432.125 166.182C430.807 163.485 430.148 160.333 430.148 156.727C430.148 153.091 430.807 149.917 432.125 147.205C433.458 144.492 435.307 142.386 437.67 140.886C440.049 139.386 442.814 138.636 445.966 138.636C449.117 138.636 451.875 139.386 454.239 140.886C456.617 142.386 458.466 144.492 459.784 147.205C461.117 149.917 461.784 153.091 461.784 156.727C461.784 160.333 461.117 163.485 459.784 166.182C458.466 168.879 456.617 170.977 454.239 172.477C451.875 173.977 449.117 174.727 445.966 174.727ZM445.966 169.909C448.36 169.909 450.33 169.295 451.875 168.068C453.42 166.841 454.564 165.227 455.307 163.227C456.049 161.227 456.42 159.061 456.42 156.727C456.42 154.394 456.049 152.22 455.307 150.205C454.564 148.189 453.42 146.561 451.875 145.318C450.33 144.076 448.36 143.455 445.966 143.455C443.572 143.455 441.602 144.076 440.057 145.318C438.511 146.561 437.367 148.189 436.625 150.205C435.883 152.22 435.511 154.394 435.511 156.727C435.511 159.061 435.883 161.227 436.625 163.227C437.367 165.227 438.511 166.841 440.057 168.068C441.602 169.295 443.572 169.909 445.966 169.909Z" fill="white"/>
</svg>
